# xmcd
#
# Track frame offsets:
#       150
#       17138
#       39021
#       55171
#       74586
#       89374
#       104010
#       119805
#       135347
#       150228
#
# Disc length: 2259 seconds
#
# Revision: 0
# Processed by: cddbd v1.5.1PL0 Copyright (c) Steve Scherf et al.
# Submitted via: WaveLab 4.01
#
DISCID=8008d10a
DTITLE=Rene' - Return of Innocence
DYEAR=2005
DGENRE=R and B
TTITLE0=Out Tonight
TTITLE1=Everytime
TTITLE2=Dance
TTITLE3=Forgive Me
TTITLE4=Ready
TTITLE5=What Would You Say
TTITLE6=Break Up
TTITLE7=Naive
TTITLE8=Can You
TTITLE9=Puppy Love
EXTD=
EXTT0=
EXTT1=
EXTT2=
EXTT3=
EXTT4=
EXTT5=
EXTT6=
EXTT7=
EXTT8=
EXTT9=
PLAYORDER=
